<?xml version="1.0" standalone="no"?><svg xmlns="http://www.w3.org/2000/svg" xmlns:xlink="http://www.w3.org/1999/xlink" style="isolation:isolate" viewBox="0 0 400 400" width="400" height="400"><defs><clipPath id="_clipPath_fFhbod79yG7tmjolEmICoD1AgCB9vxDT"><rect width="400" height="400"/></clipPath></defs><g clip-path="url(#_clipPath_fFhbod79yG7tmjolEmICoD1AgCB9vxDT)"><rect width="400" height="400" style="fill:rgb(245,238,229)"/><path d=" M 260 303.6 L 371.6 334.4 C 384.4 338.8 394.4 348.4 400 360.8 L 400 400 L 0 400 L 0 360.8 C 5.2 348.4 15.6 338.8 28.4 334.4 L 140 303.6 L 140 244 L 260 244 L 260 303.6 Z " fill="rgb(212,176,140)"/><clipPath id="_clipPath_C3WcIbbr7aFXLeRm60cNOMqjS6is58lb"><path d=" M 260 303.6 L 371.6 334.4 C 384.4 338.8 394.4 348.4 400 360.8 L 400 400 L 0 400 L 0 360.8 C 5.2 348.4 15.6 338.8 28.4 334.4 L 140 303.6 L 140 244 L 260 244 L 260 303.6 Z " fill="rgb(255,255,255)"/></clipPath><g clip-path="url(#_clipPath_C3WcIbbr7aFXLeRm60cNOMqjS6is58lb)"><path d=" M 200.8 320 L 172 320 L 152.8 300 L 0 300 L 0 400 L 200.8 400 L 401.2 400 L 401.2 300 L 248.8 300 L 229.6 320 L 200.8 320 Z " fill="rgb(30,30,35)"/></g><clipPath id="_clipPath_C1wvXxJCdgcIwWTTMPzdZy2dcLMJwd7s"><path d=" M 260 303.6 L 371.6 334.4 C 384.4 338.8 394.4 348.4 400 360.8 L 400 400 L 0 400 L 0 360.8 C 5.2 348.4 15.6 338.8 28.4 334.4 L 140 303.6 L 140 244 L 260 244 L 260 303.6 Z " fill="rgb(255,255,255)"/></clipPath><g clip-path="url(#_clipPath_C1wvXxJCdgcIwWTTMPzdZy2dcLMJwd7s)"><path d=" M 200 320 L 204 320 L 262.8 289.2 L 239.6 404.8 L 200 400.4 L 160.4 404.8 L 137.2 289.2 L 196 320 L 200 320 Z " fill="rgb(193,202,212)"/></g><clipPath id="_clipPath_vcmgR07I56sXpbtDOnBeUa2juiQiNs96"><path d=" M 260 303.6 L 371.6 334.4 C 384.4 338.8 394.4 348.4 400 360.8 L 400 400 L 0 400 L 0 360.8 C 5.2 348.4 15.6 338.8 28.4 334.4 L 140 303.6 L 140 244 L 260 244 L 260 303.6 Z " fill="rgb(255,255,255)"/></clipPath><g clip-path="url(#_clipPath_vcmgR07I56sXpbtDOnBeUa2juiQiNs96)"><path d=" M 190 356 L 210 356 L 226 404 L 174 404 L 190 356 Z " fill="rgb(33,109,217)"/></g><clipPath id="_clipPath_hxbIyQkFCHJTP4p2B4U8aPDY7qtIczcE"><path d=" M 260 303.6 L 371.6 334.4 C 384.4 338.8 394.4 348.4 400 360.8 L 400 400 L 0 400 L 0 360.8 C 5.2 348.4 15.6 338.8 28.4 334.4 L 140 303.6 L 140 244 L 260 244 L 260 303.6 Z " fill="rgb(255,255,255)"/></clipPath><g clip-path="url(#_clipPath_hxbIyQkFCHJTP4p2B4U8aPDY7qtIczcE)"><path d=" M 158 320 L 242 320 L 210 356 L 190 356 L 158 320 Z " fill="rgb(36,156,242)"/></g><clipPath id="_clipPath_OwXRF3xUoxNEYF848eJs0KE88RQeBW3D"><path d=" M 260 303.6 L 371.6 334.4 C 384.4 338.8 394.4 348.4 400 360.8 L 400 400 L 0 400 L 0 360.8 C 5.2 348.4 15.6 338.8 28.4 334.4 L 140 303.6 L 140 244 L 260 244 L 260 303.6 Z " fill="rgb(255,255,255)"/></clipPath><g clip-path="url(#_clipPath_OwXRF3xUoxNEYF848eJs0KE88RQeBW3D)"><path d=" M 262 280 L 204.4 320 L 247.6 364 L 264 284 L 262 280 Z  M 138 280 L 195.6 320 L 152.4 364 L 136 284 L 138 280 Z " fill="rgb(255,255,255)"/></g><path d=" M 200 296 C 194 296 186 294.8 180.8 292.4 C 174.4 289.6 152 274 144.4 267.2 C 134.4 258 129.2 246.8 127.6 227.2 C 126 207.6 120 138 120 122 C 120 99.2 140.4 64 200 64 L 200 64 L 200 64 L 200 64 L 200 64 C 259.2 64 279.6 99.2 279.6 122 C 279.6 138 273.6 208 272 227.6 C 270.4 247.2 265.6 258.4 255.2 267.6 C 247.6 274.4 224.8 290 218.8 292.8 C 214 294.8 206 296 200 296 L 200 296 Z " fill="rgb(242,206,165)"/><path d=" M 228 240 L 172 240 C 170.4 240 169.6 241.6 170.4 243.2 C 175.6 252.4 185.2 257.2 197.2 258 C 209.6 258.8 223.2 252.8 229.6 243.2 C 230.4 242 229.6 240 228 240 Z " fill="rgb(163,112,95)"/><path d=" M 228 180 C 228 175.585 231.585 172 236 172 C 240.415 172 244 175.585 244 180 C 244 184.415 240.415 188 236 188 C 231.585 188 228 184.415 228 180 Z " fill="rgb(38,38,38)"/><path d=" M 156 180 C 156 175.585 159.585 172 164 172 C 168.415 172 172 175.585 172 180 C 172 184.415 168.415 188 164 188 C 159.585 188 156 184.415 156 180 Z " fill="rgb(38,38,38)"/><path d=" M 186.4 170 C 184.4 166.8 178.8 160 164.4 160 C 148 160 144 169.2 144 169.6 L 136.4 166.8 C 136.8 166.4 142 152.4 164.4 152.4 C 182.8 152.4 190.8 162 193.2 166.4 L 186.4 170 Z " fill="rgb(204,152,114)"/><path d=" M 204 212 C 204 210.8 204 183.6 204 176 C 204 166 214 152.4 236 152 C 258 152 263.6 166 264 166.4 L 256.4 169.2 C 256.4 168.8 252.4 160 236 159.6 C 219.6 159.6 212 169.2 212 175.6 C 212 183.2 212 211.2 212 211.6 L 204 212 Z " fill="rgb(187,134,96)"/><path d=" M 275.2 192.8 C 275.2 192.8 278.4 167.6 290 164 C 291.6 156.8 296 136 296 124.4 C 296 112.8 294.8 101.6 288.4 92 C 281.2 81.6 266 75.6 258 75.6 C 248.8 81.2 227.2 94 220.4 101.6 C 216.8 105.6 222 108.8 222 108.8 C 222 108.8 226.8 106.8 228.8 106.4 C 238.8 103.6 260.8 101.6 267.6 111.6 C 276 123.6 276 158.8 276 164 C 276 168.8 275.2 192.8 275.2 192.8 Z " fill="rgb(217,140,33)"/><path d=" M 110 164 C 121.6 168 124.8 192.8 124.8 192.8 C 124.8 192.8 124 168.8 124 164 C 124 157.6 124.8 127.6 137.6 113.2 C 152 97.2 171.2 92 182 99.2 C 187.6 102.8 206.4 121.2 226.4 106 C 238.4 96.8 260.4 76 260.4 76 C 260.4 76 248.8 40.4 196 44.4 C 173.6 46.4 148.8 40.8 148.8 40.8 C 148.8 40.8 148.4 50.8 152.4 56 C 119.2 65.6 108.4 89.6 105.2 108 C 104.4 111.6 104 115.2 104 118.8 C 104 120.8 104 122.8 104 124.4 C 104 136 108.4 156.4 110 164 Z " fill="rgb(230,164,34)"/></g></svg>