<?xml version="1.0" standalone="no"?><svg xmlns="http://www.w3.org/2000/svg" xmlns:xlink="http://www.w3.org/1999/xlink" style="isolation:isolate" viewBox="0 0 400 225" width="400" height="225"><defs><clipPath id="_clipPath_evyLHNaIzf1pU7sO17ue3A7lsOloUiRO"><rect width="400" height="225"/></clipPath></defs><g clip-path="url(#_clipPath_evyLHNaIzf1pU7sO17ue3A7lsOloUiRO)"><rect width="400" height="225" style="fill:rgb(255,249,197)"/><path d=" M 268 184.75 L 132 184.75 C 122.608 184.75 115 177.142 115 167.75 L 115 57.25 C 115 47.858 122.608 40.25 132 40.25 L 268 40.25 C 277.393 40.25 285 47.858 285 57.25 L 285 167.75 C 285 177.142 277.393 184.75 268 184.75 Z " fill="rgb(255,193,7)"/><path d=" M 234 78.5 C 234.002 85.544 239.715 91.252 246.758 91.25 C 253.802 91.248 259.511 85.535 259.509 78.492 C 259.506 71.448 253.794 65.739 246.75 65.742 C 239.706 65.744 233.998 71.456 234 78.5" fill="rgb(255,248,225)"/><path d=" M 183 78.5 L 136.25 146.5 L 229.75 146.5 L 183 78.5 Z " fill="rgb(216,87,0)"/><path d=" M 229.75 104 L 195.75 146.5 L 263.75 146.5 L 229.75 104 Z " fill="rgb(239,126,3)"/></g></svg>